<svg version="1.1" baseProfile="basic" id="Layer_1"
	 xmlns="http://www.w3.org/2000/svg" xmlns:xlink="http://www.w3.org/1999/xlink" x="0px" y="0px" width="100px" height="100px"
	 viewBox="0 0 100 100" xml:space="preserve">
<g>
	<g>
		<g>
			<g>
				<g>
					<path id="a8uog2YPP" d="M0,0"/>
				</g>
			</g>
		</g>
		<g>
			<g>
				<g>
					<path id="ckVVc9DB3" d="M0,0"/>
				</g>
			</g>
		</g>
		<g>
			<g>
				<path id="alNEjA0xv" fill="#EFB095" d="M49.61,62.79c0.71,0.53,2.6-0.09,4.61-0.81c6.58-2.33,13.34-13.43,13.53-28.66
					c0.06-5.18-1.16-11.21-4.16-14.58c-2.88-3.24-7.26-5.06-13.13-5.46C49.42,45.93,49.13,62.43,49.61,62.79z"/>
			</g>
		</g>
		<g>
			<g>
				<path id="a2kRzwS7yo" fill="#9F56FF" d="M50.05,98.17c17.81,0,29.36-5.29,34.68-15.86c-1.9-2.82-4.98-4.58-9.26-5.29
					c-4.28-0.71-8-1.85-11.17-3.41C37,89.98,32.25,98.17,50.05,98.17z"/>
			</g>
		</g>
		<g>
			<g>
				<path id="c1xHfWiaFf" fill="#AF7FED" d="M58.93,79.84c12.69,9.66,5,18.33-8.53,18.33c-17.8,0-29.51-5.46-35.13-16.39
					c1.9-2.82,4.98-4.58,9.26-5.29c4.28-0.72,8-1.85,11.17-3.41C47.17,74.53,54.92,76.79,58.93,79.84z"/>
			</g>
		</g>
		<g>
			<g>
				<path id="c20DE1G47C" fill="#EFB095" d="M64.71,39.78c-0.71,3.52-0.21,6.57,1.11,6.81c1.32,0.24,2.97-2.42,3.68-5.93
					c0.71-3.51,0.21-6.56-1.11-6.81C67.07,33.61,65.42,36.27,64.71,39.78z"/>
			</g>
		</g>
		<g>
			<g>
				<path id="m6fsaEJaZv" fill="#F5ECF3" d="M65.3,74.87c0,2.39-7.11,4.33-15.86,4.33c-8.75,0-15.86-1.94-15.86-4.33
					s7.11-4.33,15.86-4.33C58.19,70.54,65.3,72.48,65.3,74.87z"/>
			</g>
		</g>
		<g>
			<g>
				<path id="g9ZX2sOS1" fill="#FFCEB9" d="M49.26,66.87c0.85-0.12,5.45,2.13,13.78,6.75c-4.7,1.83-8.91,2.79-12.63,2.86
					c-10.06,0.19-15.02-2.62-12.83-3.59c3-1.32,4.15-5.9,3.44-13.73C45.66,64.42,48.41,66.99,49.26,66.87z"/>
			</g>
		</g>
		<g>
			<g>
				<path id="e5VbyqZc1W" fill="#EFB095" d="M62.97,73.61c-1.2-0.26-2.69-1.66-3.46-2.64c-1.78-2.29-2.22-6.28-1.31-11.99H40.97
					l5.25,7.58"/>
			</g>
		</g>
		<g>
			<g>
				<path id="d17bqQcOjV" fill="#FFCEB9" d="M35.15,39.78c0.71,3.52,0.21,6.57-1.11,6.81c-1.32,0.24-2.96-2.42-3.67-5.93
					c-0.71-3.51-0.21-6.56,1.11-6.81C32.8,33.61,34.44,36.27,35.15,39.78z"/>
			</g>
		</g>
		<g>
			<g>
				<path id="apYuZ90Wc" fill="#FFCEB9" d="M49.78,62.89c-0.81-0.24-2.58-0.52-4.5-1.2C38.7,59.36,33,48.47,32.81,33.25
					c-0.07-5.98,1.89-12.51,6.25-16.06c3.04-2.47,6.85-3.83,11.45-4.08l1.48,19.11l1.62,12.51l-2.64,4.88L49.78,62.89
					C50.82,63.19,50.82,63.19,49.78,62.89z"/>
			</g>
		</g>
		<g>
			<g>
				<path id="acnsqmCI6" fill="#F28746" d="M50.12,0.93v0.03l2.27,0.39L52.7,1.4L53,1.45l0.3,0.06l0.28,0.06l0.28,0.06l0.27,0.07
					l0.26,0.06l0.25,0.07l0.24,0.08l0.23,0.07l0.23,0.08l0.21,0.08l0.21,0.08l0.19,0.09l0.19,0.09l0.18,0.09l0.17,0.09l0.16,0.1
					l0.15,0.1l0.22,0.16l0.23,0.17l0.23,0.17l0.22,0.18l0.23,0.18l0.22,0.19l0.22,0.19l0.22,0.19L58.8,4.4L59,4.59l0.2,0.2
					l0.19,0.19l0.17,0.18l0.17,0.19l0.16,0.18l0.14,0.17l0.13,0.17l0.12,0.16l0.1,0.15l0.16,0.24l0.18,0.24l0.2,0.22l0.22,0.22
					l0.24,0.21l0.25,0.2l0.28,0.19l0.29,0.18l0.31,0.18l0.34,0.16l0.35,0.16l0.37,0.15l0.39,0.15l0.41,0.13l0.42,0.13l0.45,0.12
					l0.47,0.11l0.48,0.1l0.5,0.09h0.11l0.11,0.01l0.13,0.03l0.13,0.04l0.15,0.07l0.16,0.07l0.16,0.1l0.18,0.11l0.19,0.13l0.19,0.14
					l0.21,0.16l0.22,0.18l0.23,0.19l0.24,0.21l0.25,0.23l0.26,0.24l0.27,0.26l0.28,0.28l0.29,0.29l0.41,0.48l0.34,0.51l0.28,0.55
					l0.22,0.6l0.17,0.63l0.12,0.67l0.08,0.71L72.12,17v0.78l-0.01,0.82l-0.04,0.85l-0.06,0.89l-0.07,0.92l-0.08,0.96l-0.08,0.99
					l-0.08,1.02l-0.07,1.05l-0.06,1.09l-0.04,1.11l-0.03,0.74l-0.07,0.71l-0.09,0.68l-0.13,0.65l-0.16,0.61l-0.19,0.59l-0.21,0.56
					l-0.25,0.53l-0.29,0.5l-0.31,0.46l-0.34,0.44l-0.37,0.41l-0.4,0.37l-0.44,0.35l-0.46,0.32l-0.5,0.28l-0.52,0.26l-0.56,0.23
					l-0.58,0.19l-0.12-0.98l-0.12-0.95l-0.11-0.92l-0.12-0.89l-0.12-0.85l-0.11-0.82l-0.12-0.79l-0.12-0.76l-0.11-0.72l-0.12-0.69
					l-0.12-0.66l-0.11-0.62l-0.12-0.59l-0.12-0.56l-0.12-0.52l-0.12-0.49l-0.11-0.46l-0.12-0.43l-0.12-0.39l-0.15-0.37l-0.21-0.35
					l-0.28-0.34l-0.33-0.32l-0.4-0.3l-0.46-0.29l-0.52-0.27l-0.58-0.25l-0.65-0.24l-0.71-0.22l-0.77-0.21l-0.83-0.18l-0.9-0.17
					l-0.95-0.16l-1.02-0.14l-1.08-0.12l-1.14-0.11l-1.21-0.09l-1.18-0.06l-1.19,0.06l-1.21,0.09l-1.16,0.11l-1.09,0.12l-1.02,0.14
					l-0.97,0.16l-0.9,0.17l-0.84,0.18l-0.77,0.21l-0.72,0.22l-0.65,0.24l-0.59,0.25L38.4,21.3l-0.46,0.29l-0.41,0.3l-0.33,0.32
					l-0.28,0.34l-0.21,0.35l-0.15,0.37l-0.12,0.39l-0.12,0.43l-0.12,0.46l-0.12,0.5l-0.12,0.53l-0.11,0.56l-0.12,0.6l-0.11,0.63
					l-0.12,0.67l-0.11,0.7l-0.12,0.73l-0.11,0.77l-0.12,0.8l-0.11,0.84l-0.11,0.87l-0.11,0.9l-0.11,0.94l-0.11,0.97l-0.11,1.01
					l-0.6-0.22l-0.57-0.25l-0.54-0.27l-0.5-0.31l-0.47-0.33l-0.44-0.36l-0.41-0.39l-0.38-0.42l-0.35-0.45l-0.32-0.48l-0.28-0.51
					l-0.26-0.53l-0.22-0.57l-0.19-0.59l-0.16-0.63l-0.13-0.65l-0.1-0.68l-0.07-0.71l-0.03-0.74l-0.04-1.1l-0.04-1.06l-0.04-1.02
					l-0.04-0.97l-0.03-0.93l-0.03-0.89l-0.01-0.85v-0.8l0.02-0.78l0.04-0.73l0.08-0.7l0.1-0.67l0.13-0.63l0.18-0.6l0.22-0.57
					l0.26-0.55l0.31-0.51l0.36-0.49l0.42-0.47l0.3-0.29l0.3-0.29l0.3-0.27l0.3-0.27l0.31-0.25l0.3-0.24l0.31-0.23l0.3-0.22
					l0.31-0.21l0.31-0.2l0.31-0.18l0.31-0.18l0.31-0.16l0.31-0.16l0.32-0.14l0.31-0.13l0.32-0.13L35.8,9.5l0.31-0.1l0.4-0.23
					l0.39-0.23l0.37-0.23l0.36-0.23l0.35-0.23l0.33-0.24l0.32-0.23l0.3-0.24l0.3-0.23l0.28-0.24l0.26-0.24l0.26-0.24l0.24-0.24
					l0.22-0.24l0.21-0.24l0.2-0.24l0.19-0.24l0.17-0.25l0.16-0.24l0.16-0.24l0.17-0.24l0.18-0.23l0.19-0.22l0.2-0.21l0.21-0.21
					l0.22-0.2l0.23-0.19l0.23-0.19l0.25-0.18l0.26-0.17L44,2.45l0.28-0.16l0.29-0.15l0.3-0.15l0.31-0.14l0.32-0.13l0.33-0.13
					l0.34-0.12l3.77-0.51V0.93l0.08,0.02L50.12,0.93z"/>
			</g>
		</g>
	</g>
</g>
</svg>
