<svg version="1.1" baseProfile="basic" id="Layer_1"
	 xmlns="http://www.w3.org/2000/svg" xmlns:xlink="http://www.w3.org/1999/xlink" x="0px" y="0px"
	 viewBox="0 0 100 100" xml:space="preserve">
<g>
	<g>
		<g>
			<g>
				<path id="c1HCUWoFcx" fill="#3B3B3B" d="M78.38,26.89c0,5.5-2.58,14.54-5.62,18.76c-4.95,6.88-12.45,7.47-21.85,7.47
					c-8.79,0-18.85-2.64-23.88-8.79c-3.64-4.45-3.59-11.36-3.59-17.44c0-14.48,12.31-26.24,27.47-26.24S78.38,12.41,78.38,26.89z"/>
			</g>
		</g>
		<g>
			<g>
				<g>
					<path id="a84aXzGf7" fill="#3B3B3B" d="M0,0"/>
				</g>
			</g>
		</g>
		<g>
			<g>
				<g>
					<path id="bqMQwrwwR" fill="#3B3B3B" d="M0,0"/>
				</g>
			</g>
		</g>
		<g>
			<g>
				<path id="b3zCG5sdBT" fill="#865D3D" d="M49.63,62.79c0.71,0.53,2.6-0.09,4.61-0.81c6.58-2.33,13.23-13.55,13.42-28.78
					c0.03-2.84-3.77-5.43-11.61-7.18c-1.66-0.38-3.6-0.61-5.81-0.7C49.36,49.94,49.16,62.43,49.63,62.79z"/>
			</g>
		</g>
		<g>
			<g>
				<path id="aeapItlnR" fill="#747474" d="M50.05,98.17c17.81,0,29.36-5.29,34.68-15.86c-1.9-2.82-4.98-4.58-9.26-5.29
					c-4.28-0.71-8-1.85-11.17-3.41C37,89.98,32.25,98.17,50.05,98.17z"/>
			</g>
		</g>
		<g>
			<g>
				<path id="a2EaTYP5yt" fill="#A7A7A7" d="M58.93,79.84c12.69,9.66,5,18.33-8.53,18.33c-17.8,0-29.51-5.46-35.13-16.39
					c1.9-2.82,4.98-4.58,9.26-5.29c4.28-0.72,8-1.85,11.17-3.41C47.17,74.53,54.92,76.79,58.93,79.84z"/>
			</g>
		</g>
		<g>
			<g>
				<path id="cYfcLv52h" fill="#865D3D" d="M64.8,39.78c-0.71,3.52-0.22,6.57,1.1,6.81c1.32,0.24,2.97-2.42,3.68-5.93
					c0.71-3.51,0.21-6.56-1.11-6.81C67.15,33.61,65.5,36.27,64.8,39.78z"/>
			</g>
		</g>
		<g>
			<g>
				<path id="c7o6vZJbp" fill="#F5ECF3" d="M65.3,74.87c0,2.39-7.11,4.33-15.86,4.33c-8.75,0-15.86-1.94-15.86-4.33
					s7.11-4.33,15.86-4.33C58.19,70.54,65.3,72.48,65.3,74.87z"/>
			</g>
		</g>
		<g>
			<g>
				<path id="dgiS9f3VO" fill="#B58560" d="M49.21,66.94c0.85-0.11,5.44,2.14,13.78,6.75c-4.71,1.84-8.92,2.79-12.63,2.86
					c-10.06,0.19-15.03-2.61-12.83-3.58c3-1.32,4.14-6.12,3.41-14.38C45.6,64.28,48.36,67.06,49.21,66.94z"/>
			</g>
		</g>
		<g>
			<g>
				<path id="dbptJfNuE" fill="#865D3D" d="M63.01,73.62c-1.2-0.26-2.69-1.67-3.46-2.65c-1.78-2.28-2.22-6.28-1.31-11.99l-16.72,0.4
					l4.74,7.19"/>
			</g>
		</g>
		<g>
			<g>
				<path id="a343YxYLjQ" fill="#B58560" d="M35.15,39.78c0.71,3.52,0.21,6.57-1.11,6.81c-1.32,0.24-2.96-2.42-3.67-5.93
					c-0.71-3.51-0.21-6.56,1.11-6.81C32.8,33.61,34.44,36.27,35.15,39.78z"/>
			</g>
		</g>
		<g>
			<g>
				<path id="b1dVER8314" fill="#B58560" d="M49.78,62.89c-0.81-0.24-2.58-0.52-4.5-1.2C38.71,59.36,33,48.47,32.81,33.25
					c-0.04-3.49,4.35-6.18,13.32-7.62c1.28-0.2,2.68-0.31,4.19-0.32l1.24,5.94l2.05,13.48l-2.64,4.88L49.78,62.89
					C50.82,63.19,50.82,63.19,49.78,62.89z"/>
			</g>
		</g>
	</g>
</g>
</svg>
