<svg version="1.1" baseProfile="basic" id="Layer_1"
	 xmlns="http://www.w3.org/2000/svg" xmlns:xlink="http://www.w3.org/1999/xlink" x="0px" y="0px"
	 viewBox="0 0 100 100" xml:space="preserve">
<g>
	<g>
		<g>
			<g>
				<g>
					<path id="ho1QUxa6" d="M0,0"/>
				</g>
			</g>
		</g>
		<g>
			<g>
				<g>
					<path id="bQldUsCCS" d="M0,0"/>
				</g>
			</g>
		</g>
		<g>
			<g>
				<path id="a3inLsGmqs" fill="#E2B186" d="M49.61,62.79c0.71,0.53,2.6-0.09,4.61-0.81c6.58-2.33,13.34-13.43,13.53-28.66
					c0.06-5.18-1.16-11.21-4.16-14.58c-2.88-3.24-7.24-5.11-13.09-5.62C49.43,45.87,49.13,62.43,49.61,62.79z"/>
			</g>
		</g>
		<g>
			<g>
				<path id="b4m0BbkhG0" fill="#747474" d="M50.05,98.17c17.81,0,29.36-5.29,34.68-15.86c-1.9-2.82-4.98-4.58-9.26-5.29
					c-4.28-0.71-8-1.85-11.17-3.41C37,89.98,32.25,98.17,50.05,98.17z"/>
			</g>
		</g>
		<g>
			<g>
				<path id="e1ttgs0MB4" fill="#A7A7A7" d="M58.93,79.84c12.69,9.66,5,18.33-8.53,18.33c-17.8,0-29.51-5.46-35.13-16.39
					c1.9-2.82,4.98-4.58,9.26-5.29c4.28-0.72,8-1.85,11.17-3.41C47.17,74.53,54.92,76.79,58.93,79.84z"/>
			</g>
		</g>
		<g>
			<g>
				<path id="b3puErmrY2" fill="#E2B186" d="M64.71,39.78c-0.71,3.52-0.21,6.57,1.11,6.81c1.32,0.24,2.97-2.42,3.68-5.93
					c0.71-3.51,0.21-6.56-1.11-6.81C67.07,33.61,65.42,36.27,64.71,39.78z"/>
			</g>
		</g>
		<g>
			<g>
				<path id="a1VccZgwo" fill="#F5ECF3" d="M65.3,74.87c0,2.39-7.11,4.33-15.86,4.33c-8.75,0-15.86-1.94-15.86-4.33
					s7.11-4.33,15.86-4.33C58.19,70.54,65.3,72.48,65.3,74.87z"/>
			</g>
		</g>
		<g>
			<g>
				<path id="fLI9f2eqb" fill="#FFD1A8" d="M49.26,66.87c0.85-0.12,5.45,2.13,13.78,6.75c-4.7,1.83-8.91,2.79-12.63,2.86
					c-10.06,0.19-15.02-2.62-12.83-3.59c3-1.32,4.15-5.9,3.44-13.73C45.66,64.42,48.41,66.99,49.26,66.87z"/>
			</g>
		</g>
		<g>
			<g>
				<path id="cnXtsArP" fill="#E2B186" d="M62.97,73.61c-1.2-0.26-2.69-1.66-3.46-2.64c-1.78-2.29-2.22-6.28-1.31-11.99H40.97
					l5.25,7.58"/>
			</g>
		</g>
		<g>
			<g>
				<path id="a1uJBDz9uy" fill="#FFD1A8" d="M35.15,39.78c0.71,3.52,0.21,6.57-1.11,6.81c-1.32,0.24-2.96-2.42-3.67-5.93
					c-0.71-3.51-0.21-6.56,1.11-6.81C32.8,33.61,34.44,36.27,35.15,39.78z"/>
			</g>
		</g>
		<g>
			<g>
				<path id="cSpbnoMIr" fill="#FFD1A8" d="M49.78,62.89c-0.81-0.24-2.58-0.52-4.5-1.2C38.7,59.36,33,48.47,32.81,33.25
					c-0.07-5.98,1.89-12.51,6.25-16.06c3.04-2.47,6.85-3.83,11.45-4.08l1.48,19.11l1.62,12.51l-2.64,4.88L49.78,62.89
					C50.82,63.19,50.82,63.19,49.78,62.89z"/>
			</g>
		</g>
		<g>
			<g>
				<path id="f3TK54XRX" fill="#6DB300" d="M34.78,33.45l2.72-2.58c-0.13-4.11-0.03-7.02,0.32-8.72c0.53-2.55-13.41,3.14,1.8-0.11
					c15.21-3.26,22.76-0.48,23.27,0.43c0.33,0.61,0.5,3.7,0.5,9.27l2.62,1.01v10.47l2.21-9.26c0.48-5.24,0.88-9.98,1.21-14.21
					c0.51-6.34-1.1-11.38-1.1-9.97c0,0.94-0.61,2.42-1.82,4.45c0.07,0.72-0.1,0.2-0.5-1.57S66,8.59,67.2,5.75l-4.92,6.91l-0.1-5.4
					l-3.12,3.84l-0.81-8.27l-2.73,6.21l-1.17-4.35l-2.24,3.78l-4.23-6.15l-1.72,6.25l-1.41-5.54l-3.02,8.86l-1.09-7.25l-0.82,6.95
					c0.4,0.67,0.15,0.1-0.74-1.71c-0.9-1.81-1.26-4.01-1.08-6.59l-2.72,8.6l-1.31-4.63c-0.67,1.55-1.24,3.26-1.71,5.14
					c-0.47,1.88-0.54,9.11-0.23,21.69l2.36,8.63L34.78,33.45z"/>
			</g>
		</g>
		<g>
			<g>
				<path id="aeJZrcLuf" fill="#6DB300" d="M46.96,61.53l2.22,0.72l0.66-1.75h1.56l0.83,1.79l2.17-0.59l2.53-2.96l-0.74,2.62
					l-0.95,3.41l-2.16,7.74l0.2-0.78l0.37-5.03l-1.18,3.39l-0.44-3.13l-1.01,4.05l-0.27-5.35l-0.43,1.58
					c-0.21,3.3-0.34,4.52-0.41,3.65c-0.08-0.86-0.32-2.48-0.74-4.84l-0.34,2.7l-1.24-3.83l-0.01,1.89l1.12,4.5
					c-1.02-1.65-1.85-2.89-2.47-3.72c-0.63-0.82-1.45-3.72-2.48-8.68L46.96,61.53z"/>
			</g>
		</g>
	</g>
</g>
</svg>
