<?xml version="1.0" encoding="iso-8859-1"?>
<!-- Generator: Adobe Illustrator 16.0.0, SVG Export Plug-In . SVG Version: 6.00 Build 0)  -->
<!DOCTYPE svg PUBLIC "-//W3C//DTD SVG 1.1//EN" "http://www.w3.org/Graphics/SVG/1.1/DTD/svg11.dtd">
<svg version="1.1" id="Capa_1" xmlns="http://www.w3.org/2000/svg" xmlns:xlink="http://www.w3.org/1999/xlink" x="0px" y="0px"
	 width="951.2px" height="951.2px" viewBox="0 0 951.2 951.2" style="enable-background:new 0 0 951.2 951.2;fill:#fff" xml:space="preserve"
	>
<g>
	<path d="M819.9,331.25c0-22.1-17.9-40-40-40h-41.3c-36,0-65.301-29.2-65.301-65.2c0-108-87.899-195.8-195.8-195.8h-18.6
		c-97.4,0-178,73.3-189.8,167.5c12.3-1,25-1.5,38-1.5c14.8,0,29.199,0.7,43,2c10.8-50.1,55.5-88,108.8-88h18.6
		c63.9,0,115.8,51.9,115.8,115.8c0,80.1,65.2,145.2,145.301,145.2h41.3C802,371.25,819.9,353.35,819.9,331.25z"/>
	<path d="M307.5,920.95c169.7,0,307.2-137.601,307.2-307.3c0-122.9-72.5-228.9-176.5-278.101v-61.5c0-16.7-38-30.9-91-35.8
		c-12-1.2-26.3-1.8-40.3-1.8c-13.8,0-26.7,0.6-39.7,1.8c-53,4.8-91,19.1-91,35.9v61.5c-104,49-176.2,155.1-176.2,278
		C0,783.35,137.7,920.95,307.5,920.95z"/>
	<path d="M743.2,246.25c0,11,9,20,20,20h13c11,0,20-9,20-20v-65c0-11-9-20-20-20h-13c-11,0-20,9-20,20V246.25z"/>
	<path d="M763.2,397.25c-11,0-20,9-20,20v65c0,11,9,20,20,20h13c11,0,20-9,20-20v-65c0-11-9-20-20-20H763.2z"/>
	<path d="M931.2,302.25h-65c-11,0-20,9-20,20v13c0,11,9,20,20,20h65c11,0,20-9,20-20v-13C951.2,311.25,942.2,302.25,931.2,302.25z"
		/>
</g>
<g>
</g>
<g>
</g>
<g>
</g>
<g>
</g>
<g>
</g>
<g>
</g>
<g>
</g>
<g>
</g>
<g>
</g>
<g>
</g>
<g>
</g>
<g>
</g>
<g>
</g>
<g>
</g>
<g>
</g>
</svg>
