<?xml version="1.0" encoding="iso-8859-1"?>
<!-- Generator: Adobe Illustrator 19.0.0, SVG Export Plug-In . SVG Version: 6.00 Build 0)  -->
<svg version="1.1" id="Layer_1" xmlns="http://www.w3.org/2000/svg" xmlns:xlink="http://www.w3.org/1999/xlink" x="0px" y="0px"
	 viewBox="0 0 511.999 511.999" style="enable-background:new 0 0 511.999 511.999;fill:#fff" xml:space="preserve">
<g>
	<g>
		<path d="M429.842,320.443H82.159c-25.568,0-46.368,20.801-46.368,46.368c0,0.706,0.021,1.408,0.054,2.108
			c0.01,0.222,0.023,0.444,0.036,0.667c0.029,0.494,0.067,0.985,0.112,1.475c0.021,0.236,0.039,0.471,0.065,0.705
			c0.068,0.626,0.146,1.25,0.239,1.871c0.047,0.313,0.103,0.622,0.156,0.934c0.058,0.338,0.116,0.675,0.181,1.01
			c0.07,0.363,0.143,0.724,0.221,1.084c0.057,0.262,0.119,0.522,0.181,0.782c0.183,0.778,0.385,1.547,0.607,2.309
			c0.038,0.133,0.074,0.266,0.113,0.398c0.124,0.413,0.258,0.82,0.392,1.228c0.067,0.202,0.136,0.405,0.205,0.605
			c0.14,0.401,0.281,0.802,0.431,1.198c0.066,0.174,0.137,0.345,0.204,0.518c0.265,0.676,0.545,1.343,0.84,2.003
			c0.117,0.262,0.233,0.524,0.355,0.784c0.145,0.306,0.293,0.611,0.444,0.914c0.163,0.328,0.331,0.653,0.502,0.978
			c0.126,0.241,0.252,0.482,0.382,0.72c0.31,0.565,0.631,1.124,0.964,1.675c0.051,0.084,0.104,0.165,0.156,0.248
			c0.323,0.526,0.656,1.045,0.999,1.558c0.061,0.09,0.12,0.179,0.181,0.269c4.504,6.631,10.721,12.108,18.198,15.719
			c0.09,0.043,0.182,0.084,0.273,0.126c0.356,0.169,0.711,0.34,1.073,0.501l0.303,0.123c0.851,0.371,1.71,0.726,2.587,1.048
			l70.576,28.586c0.109,0.048,0.22,0.086,0.33,0.134c0.46,0.197,0.93,0.378,1.396,0.564c0.483,0.192,0.964,0.392,1.45,0.573
			c0.483,0.179,0.975,0.34,1.464,0.507c0.491,0.168,0.98,0.345,1.474,0.5c0.422,0.133,0.851,0.246,1.276,0.369
			c0.573,0.167,1.144,0.341,1.721,0.491c0.278,0.072,0.563,0.129,0.844,0.197c0.728,0.178,1.456,0.356,2.191,0.507
			c0.023,0.005,0.047,0.008,0.069,0.012c3.886,0.793,7.853,1.202,11.877,1.233c0.166,0.001,0.33,0.012,0.496,0.012h0.001h0.001
			h189.171c0.011,0,0.023-0.001,0.034-0.001s0.023,0.001,0.034,0.001c8.833,0,17.231-1.875,24.837-5.228l70.993-28.747
			c0.562-0.217,1.121-0.439,1.672-0.677l0.039-0.016l0.443-0.188c0.362-0.161,0.717-0.332,1.073-0.501
			c0.091-0.042,0.183-0.084,0.273-0.126c7.477-3.611,13.696-9.088,18.198-15.719c0.061-0.089,0.121-0.179,0.182-0.269
			c0.343-0.513,0.677-1.032,0.999-1.558c0.051-0.083,0.104-0.165,0.155-0.248c0.333-0.551,0.654-1.111,0.965-1.675
			c0.131-0.239,0.256-0.48,0.382-0.72c0.171-0.325,0.339-0.649,0.502-0.978c0.151-0.303,0.299-0.607,0.444-0.914
			c0.121-0.26,0.238-0.522,0.355-0.784c0.295-0.659,0.576-1.327,0.841-2.003c0.068-0.173,0.139-0.345,0.204-0.518
			c0.151-0.396,0.292-0.797,0.431-1.199c0.07-0.201,0.138-0.403,0.205-0.605c0.136-0.408,0.269-0.815,0.392-1.228
			c0.039-0.131,0.075-0.266,0.113-0.398c0.221-0.762,0.424-1.532,0.607-2.309c0.062-0.26,0.123-0.52,0.181-0.782
			c0.078-0.36,0.152-0.721,0.221-1.084c0.065-0.336,0.123-0.673,0.181-1.01c0.053-0.311,0.109-0.621,0.156-0.934
			c0.093-0.621,0.171-1.245,0.239-1.871c0.025-0.234,0.043-0.469,0.065-0.705c0.046-0.49,0.083-0.981,0.112-1.475
			c0.013-0.221,0.026-0.444,0.036-0.667c0.031-0.7,0.054-1.403,0.054-2.108C476.21,341.244,455.409,320.443,429.842,320.443z
			 M82.159,384.193c-2.232,0-4.361-0.438-6.323-1.209l-0.651-0.263c-0.403-0.177-0.8-0.366-1.185-0.573
			c-0.046-0.024-0.095-0.045-0.141-0.071c-0.453-0.248-0.893-0.518-1.321-0.803c-0.087-0.059-0.171-0.12-0.257-0.18
			c-0.348-0.242-0.687-0.495-1.015-0.76c-0.086-0.069-0.173-0.138-0.257-0.208c-0.783-0.656-1.506-1.381-2.162-2.163
			c-0.082-0.098-0.16-0.198-0.24-0.297c-0.239-0.298-0.467-0.604-0.687-0.917c-0.086-0.122-0.173-0.244-0.256-0.368
			c-0.266-0.402-0.52-0.812-0.752-1.237c-0.059-0.107-0.108-0.218-0.165-0.327c-0.171-0.329-0.334-0.662-0.483-1.002
			c-0.081-0.183-0.157-0.367-0.231-0.553c-0.12-0.301-0.232-0.607-0.336-0.915c-0.058-0.171-0.12-0.339-0.172-0.512
			c-0.138-0.455-0.257-0.917-0.358-1.388c-0.032-0.153-0.057-0.31-0.085-0.463c-0.069-0.369-0.126-0.741-0.171-1.118
			c-0.019-0.16-0.038-0.321-0.053-0.481c-0.047-0.518-0.08-1.041-0.08-1.571c0-9.583,7.796-17.38,17.38-17.38
			c9.584,0,17.38,7.796,17.38,17.38S91.743,384.193,82.159,384.193z M161.413,415.064c-0.564,0-1.128-0.014-1.687-0.042
			c-1.634-0.083-3.238-0.289-4.801-0.604c-0.042-0.008-0.083-0.014-0.124-0.022c-0.422-0.087-0.837-0.187-1.253-0.29
			c-0.119-0.029-0.24-0.054-0.359-0.085c-0.357-0.093-0.71-0.198-1.062-0.302c-0.177-0.053-0.356-0.1-0.532-0.156
			c-0.31-0.097-0.615-0.205-0.921-0.313c-0.216-0.075-0.434-0.147-0.648-0.227c-0.287-0.107-0.57-0.223-0.855-0.338
			c-0.224-0.09-0.447-0.178-0.67-0.273c-11.693-5.025-19.903-16.652-19.903-30.165c0-18.095,14.721-32.816,32.816-32.816
			s32.816,14.721,32.816,32.816S179.508,415.064,161.413,415.064z M256.035,415.064c-18.095,0-32.816-14.721-32.816-32.816
			c0-18.095,14.721-32.816,32.816-32.816s32.816,14.721,32.816,32.816S274.131,415.064,256.035,415.064z M364.3,412.082
			l-0.182,0.074l-0.378,0.16c-4.151,1.82-8.564,2.743-13.117,2.748c-18.079-0.018-32.781-14.731-32.781-32.815
			c0-18.095,14.721-32.816,32.816-32.816c18.095,0,32.816,14.721,32.816,32.816C383.473,395.476,375.6,406.893,364.3,412.082z
			 M447.142,368.382c-0.015,0.161-0.033,0.322-0.053,0.482c-0.044,0.376-0.102,0.747-0.171,1.116
			c-0.029,0.155-0.053,0.313-0.086,0.466c-0.1,0.469-0.219,0.931-0.357,1.386c-0.053,0.174-0.115,0.343-0.173,0.515
			c-0.104,0.308-0.214,0.613-0.335,0.913c-0.074,0.186-0.151,0.37-0.231,0.553c-0.151,0.34-0.313,0.675-0.483,1.002
			c-0.057,0.108-0.106,0.219-0.164,0.327c-0.233,0.424-0.485,0.834-0.751,1.236c-0.083,0.125-0.171,0.247-0.257,0.369
			c-0.218,0.314-0.447,0.619-0.686,0.916c-0.08,0.099-0.158,0.2-0.24,0.298c-0.656,0.783-1.381,1.506-2.162,2.163
			c-0.084,0.071-0.171,0.139-0.257,0.208c-0.329,0.265-0.668,0.518-1.014,0.759c-0.086,0.06-0.171,0.122-0.258,0.181
			c-0.428,0.285-0.867,0.555-1.32,0.803c-0.047,0.025-0.095,0.047-0.142,0.072c-0.385,0.206-0.782,0.394-1.184,0.571l-0.653,0.265
			c-1.962,0.77-4.089,1.208-6.321,1.208c-9.583,0-17.38-7.796-17.38-17.38s7.796-17.38,17.38-17.38c9.583,0,17.38,7.796,17.38,17.38
			C447.221,367.342,447.188,367.864,447.142,368.382z"/>
	</g>
</g>
<g>
	<g>
		<path d="M429.842,262.467h-6.942l-66.229-63.244h-37.633c-1.53-8.14-4.378-15.817-8.32-22.804l132.652-54.961l5.514,13.309
			l28.031-11.613l-5.514-13.31l33.462-13.865l-11.615-28.031L459.787,81.81l-5.514-13.308l-28.031,11.613l5.514,13.309
			l-142.433,59.014c-12.343-8.956-27.503-14.258-43.886-14.258h-56.443c-36.566,0-67.077,26.341-73.602,61.041H69.108v64.059
			C41.923,266.665,17.238,280.561,0,302.569l22.821,17.875c14.43-18.423,36.057-28.988,59.338-28.988H429.84
			c23.281,0,44.908,10.566,59.338,28.988l22.821-17.875C492.04,277.084,462.093,262.467,429.842,262.467z"/>
	</g>
</g>
<g>
</g>
<g>
</g>
<g>
</g>
<g>
</g>
<g>
</g>
<g>
</g>
<g>
</g>
<g>
</g>
<g>
</g>
<g>
</g>
<g>
</g>
<g>
</g>
<g>
</g>
<g>
</g>
<g>
</g>
</svg>
