<svg version="1.1" baseProfile="basic" id="Layer_1"
	 xmlns="http://www.w3.org/2000/svg" xmlns:xlink="http://www.w3.org/1999/xlink" x="0px" y="0px" width="100px" height="100px"
	 viewBox="-35 -35 100 100" xml:space="preserve">
<path d="M15.001-35.25c-19.271,0-39.322,4.343-39.322,4.343l-0.016,0.016c-3.907,0.785-6.721,4.216-6.725,8.204V2.438
	c0,43.544,41.968,61.741,41.968,61.741c2.541,1.427,5.637,1.427,8.176,0h0.018c0.009,0,41.965-18.197,41.965-61.741v-25.125
	c0-4-2.821-7.443-6.747-8.22C54.316-30.907,34.271-35.25,15.001-35.25z M15.001-18.5c2.314,0,4.188,1.875,4.188,4.188v15.36
	L40.126,15v4.188l-20.938-3.484v12.061l8.374,3.986v4.188H2.438v-4.188l8.375-3.99V15.7l-20.938,3.488V15L10.813,1.048v-15.36
	C10.813-16.625,12.688-18.5,15.001-18.5z"/>
</svg>
