<svg version="1.1" baseProfile="basic" id="Layer_1"
	 xmlns="http://www.w3.org/2000/svg" xmlns:xlink="http://www.w3.org/1999/xlink" x="0px" y="0px"
	 width="24px" height="24px"
	 viewBox="-26 -25 100 100" xml:space="preserve">
<path d="M37.107-25.017c-2.907,0-5.265,2.358-5.265,5.266c0,2.907,2.357,5.265,5.265,5.265c14.605,0,26.326,11.721,26.326,26.325
	c0,2.908,2.357,5.265,5.265,5.265c2.908,0,5.266-2.357,5.266-5.265C73.907-8.491,57.438-24.959,37.107-25.017z M-6.414-14.454
	c-1.368-0.195-2.958,0.694-4.738,2.806c-19.797,19.797-19.797,52.008,0,71.799C-1.253,70.048,11.751,75,24.747,75
	c13.46,0.02,26.377-5.316,35.895-14.84c4.071-4.391,3.491-7.085-0.998-8.339c-9.784-5.924-18.957-12.818-27.523-20.574
	c0.658-0.353,1.316-0.79,1.949-1.423c4.041-4.183,3.926-10.848-0.257-14.89c-4.083-3.941-10.551-3.941-14.632,0
	c-0.561,0.562-1.037,1.203-1.412,1.901C10.292,8.443,3.395-0.75-2.88-10.701c-0.964-2.264-2.107-3.549-3.486-3.738L-6.414-14.454z
	 M37.107-3.956c-2.907,0-5.265,2.357-5.265,5.265c0,2.907,2.357,5.265,5.265,5.265c2.975,0,5.266,2.291,5.266,5.265
	c0,2.908,2.357,5.265,5.266,5.265c2.907,0,5.264-2.357,5.264-5.265C52.902,3.178,45.769-3.956,37.107-3.956z"/>
</svg>
