<svg xmlns="http://www.w3.org/2000/svg" viewBox="0 0 64 64" aria-labelledby="title"
aria-describedby="desc" role="img" xmlns:xlink="http://www.w3.org/1999/xlink"
width="100" height="100">
  <title>Delete Marker</title>
  <desc>A flat styled icon from Orion Icon Library.</desc>
  <path data-name="layer2"
  d="M55.76 28.287c.07-.756.117-1.518.117-2.286a24 24 0 0 0-48 0c0 .786.047 1.564.117 2.335.008.092.02.183.029.274C9.934 47.556 31.877 62 31.877 62s21.859-14.617 23.84-33.314c.015-.134.031-.267.043-.399z"
  fill="#f4475d"></path>
  <path data-name="opacity" d="M31.877 2a24 24 0 0 0-24 24c0 .786.047 1.564.117 2.335.008.092.02.183.029.274C9.934 47.556 31.877 62 31.877 62z"
  fill="#000064" opacity=".15"></path>
  <path data-name="layer1" d="M39.67 32.031l-6.206-6.206 6.036-6.034a1 1 0 0 0-1.414-1.414l-6.035 6.035-6.207-6.206a1 1 0 0 0-1.414 1.413l6.207 6.206-6.379 6.38a1 1 0 0 0 1.414 1.414l6.379-6.38 6.207 6.206a1 1 0 1 0 1.414-1.414z"
  fill="#fff"></path>
</svg>