<?xml version="1.0" encoding="utf-8"?>
<!-- Generator: Adobe Illustrator 23.0.6, SVG Export Plug-In . SVG Version: 6.00 Build 0)  -->
<svg version="1.1" id="Layer_1" xmlns="http://www.w3.org/2000/svg" xmlns:xlink="http://www.w3.org/1999/xlink" x="0px" y="0px"
	 viewBox="0 0 100 100" style="enable-background:new 0 0 100 100;" xml:space="preserve">
<style type="text/css">
	.st0{fill:#666666;}
	.st1{fill:#FBB03B;}
	.st2{opacity:0.5;}
	.st3{opacity:0.5;fill:#FFFFFF;}
	.st4{opacity:0.28;}
	.st5{opacity:0.28;fill:#FFFFFF;}
</style>
<polygon class="st0" points="45,0 30,10 30,90 40,100 60,100 70,90 70,10 55,0 "/>
<polygon class="st1" points="36,60 36,19 43,16 57,16 64,19 64,60 57,63 43,63 "/>
<polygon class="st2" points="45,0 35,11 35,90 40,100 30,90 30,10 "/>
<polygon class="st3" points="55,-0.1 65,10.9 65,89.9 60,99.9 70,89.9 70,9.9 "/>
<polygon class="st4" points="47.9,0 42,12 42,91 44.02,100 40,100 35,90 35,11 45,0 "/>
<polygon class="st5" points="52.1,0 58,12 58,91 55.98,100 60,100 65,90 65,11 55,0 "/>
</svg>
