<svg version="1.1" baseProfile="basic" id="Layer_1"
	 xmlns="http://www.w3.org/2000/svg" xmlns:xlink="http://www.w3.org/1999/xlink" x="0px" y="0px" width="100px" height="100px"
	 viewBox="0 0 100 100" xml:space="preserve">
<g>
	<g>
		<g>
			<g>
				<g>
					<path id="adAyv9LLV" d="M0,0"/>
				</g>
			</g>
		</g>
		<g>
			<g>
				<g>
					<path id="f23pkIUW5" d="M0,0"/>
				</g>
			</g>
		</g>
		<g>
			<g>
				<path id="h21iqE9C5h" fill="#250938" d="M54.69,68.7c0.23,0.45,2.09,1.62,5.59,3.5c3.49,1.88,5.15,3.79,4.96,5.71
					c-0.12,5.99-2.13,11.2-6.04,15.62c-5.86,6.62-0.59,4.95,9.38-7.73c6.64-8.45,3.52-19.5-9.38-33.14L54.69,68.7z"/>
			</g>
		</g>
		<g>
			<g>
				<path id="ch4dYaoYD" fill="#EFB095" d="M49.61,62.79c0.71,0.53,2.6-0.09,4.61-0.81c6.58-2.33,13.34-13.43,13.53-28.66
					c0.06-5.18-1.16-11.21-4.16-14.58c-2.88-3.24-7.24-5.11-13.09-5.62C49.43,45.87,49.13,62.43,49.61,62.79z"/>
			</g>
		</g>
		<g>
			<g>
				<path id="c65IsFYwch" fill="#500906" d="M50.05,98.17c17.81,0,29.36-5.29,34.68-15.86c-1.9-2.82-4.98-4.58-9.26-5.29
					c-4.28-0.71-8-1.85-11.17-3.41C37,89.98,32.25,98.17,50.05,98.17z"/>
			</g>
		</g>
		<g>
			<g>
				<path id="c1A7t2EQfr" fill="#702421" d="M58.93,79.74c12.69,9.66,5,18.33-8.53,18.33c-17.8,0-29.51-5.46-35.13-16.39
					c1.9-2.82,4.98-4.58,9.26-5.29c4.28-0.72,8-1.85,11.17-3.41C47.17,74.43,54.92,76.69,58.93,79.74z"/>
			</g>
		</g>
		<g>
			<g>
				<path id="aaAwdlpaW" fill="#EFB095" d="M64.71,39.78c-0.71,3.52-0.21,6.57,1.11,6.81c1.32,0.24,2.97-2.42,3.68-5.93
					c0.71-3.51,0.21-6.56-1.11-6.81C67.07,33.61,65.42,36.27,64.71,39.78z"/>
			</g>
		</g>
		<g>
			<g>
				<path id="bKh4ynlKY" fill="#F5ECF3" d="M65.3,74.87c0,2.39-7.11,4.33-15.86,4.33c-8.75,0-15.86-1.94-15.86-4.33
					s7.11-4.33,15.86-4.33C58.19,70.54,65.3,72.48,65.3,74.87z"/>
			</g>
		</g>
		<g>
			<g>
				<path id="a11u24E6jV" fill="#552774" d="M31.25,31.74C48.84,61.59,52.63,73.06,42.6,66.17c-10.03-6.89-14.85-17.16-14.47-30.79
					L31.25,31.74z"/>
			</g>
		</g>
		<g>
			<g>
				<path id="gLD3PDZ0H" fill="#FFCEB9" d="M49.26,66.87c0.85-0.12,5.45,2.13,13.78,6.75c-4.7,1.83-8.91,2.79-12.63,2.86
					c-10.06,0.19-15.02-2.62-12.83-3.59c3-1.32,4.15-5.9,3.44-13.73C45.66,64.42,48.41,66.99,49.26,66.87z"/>
			</g>
		</g>
		<g>
			<g>
				<path id="cGqWn037h" fill="#EFB095" d="M62.97,73.61c-1.2-0.26-2.69-1.66-3.46-2.64c-1.78-2.29-2.22-6.28-1.31-11.99H40.97
					l5.25,7.58"/>
			</g>
		</g>
		<g>
			<g>
				<path id="a1ztiuOekS" fill="#FFCEB9" d="M35.15,39.78c0.71,3.52,0.21,6.57-1.11,6.81c-1.32,0.24-2.96-2.42-3.67-5.93
					c-0.71-3.51-0.21-6.56,1.11-6.81C32.8,33.61,34.44,36.27,35.15,39.78z"/>
			</g>
		</g>
		<g>
			<g>
				<path id="gfzDLxYU2" fill="#FFCEB9" d="M49.78,62.89c-0.81-0.24-2.58-0.52-4.5-1.2C38.7,59.36,33,48.47,32.81,33.25
					c-0.07-5.98,1.89-12.51,6.25-16.06c3.04-2.47,6.85-3.83,11.45-4.08l1.48,19.11l1.62,12.51l-2.64,4.88L49.78,62.89
					C50.82,63.19,50.82,63.19,49.78,62.89z"/>
			</g>
		</g>
		<g>
			<g>
				<path class="amen" id="a1nPjG4HDS" fill="#552774" d="M28.13,32.81c-0.03-4.92,1.9-8.36,4.36-14.47c1.65-4.07,5.92-6.93,12.82-8.57
					c8.06-0.32,12.33,0.35,12.8,1.99c0.47,1.65,0.47,2.94,0,3.87c-3.45,6.04-7.6,9.57-12.45,10.59c-4.86,1.02-9.88,7.38-15.05,19.09
					C28.97,40.26,28.14,36.09,28.13,32.81z"/>
			</g>
		</g>
	</g>
</g>
</svg>
