<?xml version="1.0" encoding="UTF-8" standalone="no"?>
<!DOCTYPE svg PUBLIC "-//W3C//DTD SVG 1.1//EN" "http://www.w3.org/Graphics/SVG/1.1/DTD/svg11.dtd">
<svg version="1.1" xmlns="http://www.w3.org/2000/svg" xmlns:xlink="http://www.w3.org/1999/xlink" preserveAspectRatio="xMidYMid meet" viewBox="0 0 100 100" width="100" height="100"><defs><path d="M18.38 100L55.13 100L100 75.78L100 32.76L65.38 0L18.38 7.98L0 40.46L18.38 100Z" id="aJGVEWF14"></path><path d="M4.7 53.28L38.89 37.61L29.2 11.68L7.55 21.94L4.7 53.28Z" id="cH1H6x4mD"></path><path d="M50 15.95L58.55 27.64L82.74 31.44L91.6 23.65L81.91 11.11L63.39 5.7L50 15.95Z" id="nc1VqvAUV"></path><path d="M57.98 71.23L84.19 74.93L79.06 91.17L50 93.73L29.49 88.32L57.98 71.23Z" id="aoYw2Smr2"></path><path d="M49.43 56.41L55.7 64.39L68.23 54.7L62.82 43.02L47.15 47.29L49.43 56.41Z" id="bnHGnBEDs"></path><path d="M10.11 81.77L18.95 88.89L24.93 64.39L18.09 53.7L7.83 73.79L10.11 81.77Z" id="a4QrVfK6cp"></path></defs><g><g><g><use xlink:href="#aJGVEWF14" opacity="1" fill="#3e362c" fill-opacity="1"></use></g><g><use xlink:href="#cH1H6x4mD" opacity="1" fill="#29211b" fill-opacity="1"></use></g><g><use xlink:href="#nc1VqvAUV" opacity="1" fill="#29211b" fill-opacity="1"></use></g><g><use xlink:href="#aoYw2Smr2" opacity="1" fill="#29211b" fill-opacity="1"></use></g><g><use xlink:href="#bnHGnBEDs" opacity="1" fill="#29211b" fill-opacity="1"></use></g><g><use xlink:href="#a4QrVfK6cp" opacity="1" fill="#29211b" fill-opacity="1"></use></g></g></g></svg>